<svg fill="none" height="16" viewBox="0 0 16 16" width="16" xmlns="http://www.w3.org/2000/svg" xmlns:xlink="http://www.w3.org/1999/xlink"><clipPath id="a"><path d="m0 0h16v16h-16z"/></clipPath><g clip-path="url(#a)" stroke="#5478c0" stroke-linecap="round" stroke-linejoin="round"><path d="m11.9574 11.9594c-1.1396.8686-2.52727 1.3499-3.96 1.3733-4.66667 0-7.333338-5.33333-7.333338-5.33333.829258-1.54541 1.979428-2.8956 3.373338-3.96m2.56-1.21334c.45888-.10741.92871-.16111 1.4-.16 4.6667 0 7.3333 5.33334 7.3333 5.33334-.4047.75707-.8873 1.46982-1.44 2.12663m-4.47997-.7133c-.1831.1965-.4039.3541-.64923.46341-.24533.10932-.51017.16809-.77871.17279-.26854.0048-.53529-.0446-.78432-.14521-.24904-.10059-.47526-.25031-.66518-.44022-.18991-.18992-.33963-.41614-.44022-.66518-.10059-.24903-.14999-.51578-.14525-.78432s.06352-.53337.17283-.77871c.10931-.24533.26691-.46613.46341-.64923"/><path d="m.664062.666016 14.666638 14.666684"/></g></svg>